<?xml version="1.0" encoding="utf-8"?>
<!-- Generator: Adobe Illustrator 24.2.0, SVG Export Plug-In . SVG Version: 6.00 Build 0)  -->
<svg version="1.1" id="Layer_1" xmlns="http://www.w3.org/2000/svg" xmlns:xlink="http://www.w3.org/1999/xlink" x="0px" y="0px"
	 viewBox="0 0 740.9 126.9" style="enable-background:new 0 0 740.9 126.9;" xml:space="preserve">
<style type="text/css">
	.st0{fill:#FFFFFF;}
	.st1{fill:#87EA74;}
	.st2{fill:#89ECED;}
</style>
<g>
	<g>
		<path class="st0" d="M391.4,118.2l-55-115c-1.1-2-3.1-3.2-5.3-3.2c-2.2,0-4.2,1.3-5.3,3.4l-52.2,115c-0.7,1.5-0.8,3.1-0.2,4.6
			c0.5,1.5,1.6,2.7,3.1,3.4c0.9,0.3,1.7,0.5,2.6,0.5c2.3,0,4.3-1.4,5.3-3.5l46.9-104.2l49.4,104.4c0.7,1.5,1.9,2.6,3.4,3.1
			c1.5,0.5,3.1,0.4,4.6-0.4c1.5-0.7,2.5-1.9,3-3.4C392.2,121.3,392.1,119.7,391.4,118.2"/>
		<path class="st0" d="M12.7,118.6c0,5.3-2.3,8-6.3,8c-4,0-6.3-2.8-6.3-8V8.2c0-5.3,2.3-8,6.3-8c4,0,6.3,2.8,6.3,8V118.6z"/>
		<path class="st0" d="M138.3,111.8c0-3.2,2.6-6.2,5.9-6.2c1.4,0,4.5,1.7,5.9,2.9c1.4,1.2,11.7,6.5,20.6,6.5
			c17.5,0,28.6-13.9,28.6-27c0-29.8-59-18.4-59-56.1c0-20.1,17.2-31.2,36-31.8c13.6,0,28.3,7.7,28.3,13.6c0,3.9-2.9,6.6-5.3,6.6
			c-6.5,0-10.7-8.7-24-8.7c-13.1,0-22.6,9.1-22.6,19.3c0,27.4,59,16.2,59,56.1c0,22.6-15.6,39.4-39.4,39.4
			C152.1,126.6,138.3,118.6,138.3,111.8"/>
		<path class="st0" d="M252.7,118.6c0,5.3-2.3,8-6.3,8c-4,0-6.3-2.8-6.3-8V12.8h-24.1c-4,0-6.7-2.6-6.7-5.7c0-3.1,2.6-5.7,6.7-5.7
			h60.7c4,0,6.7,2.6,6.7,5.7c0,3.1-2.6,5.7-6.7,5.7h-24.1v105.7H252.7z"/>
		<path class="st0" d="M417.4,118.6c0,5.3-2.3,8-6.3,8c-4,0-6.3-2.8-6.3-8V7.6c0-4.9,2.8-7.3,6.3-7.3c3.6,0,5.6,2.2,7.3,4.5
			l66.6,97.5h0.3V8.2c0-5.3,2.3-8,6.3-8c4,0,6.3,2.8,6.3,8v110.7c0,5.9-2.5,7.7-5.9,7.7c-3.2,0-4.6-1.5-6.8-4.5l-67.5-98.8h-0.3
			V118.6z"/>
		<path class="st0" d="M45.4,118.6c0,5.3-2.3,8-6.3,8c-4,0-6.3-2.8-6.3-8V7.6c0-4.9,2.8-7.3,6.3-7.3c3.6,0,5.6,2.2,7.3,4.5
			l66.8,97.5h0.3V8.2c0-5.3,2.3-8,6.3-8c4,0,6.3,2.8,6.3,8v110.7c0,5.9-2.5,7.7-5.9,7.7c-3.2,0-4.6-1.5-6.8-4.5L45.8,23.3h-0.3
			V118.6z"/>
		<path class="st0" d="M515.2,7.9c0-4.3,2.2-6.6,7.7-6.6H554c37.7,0,52.7,34,52.7,63.1c0,38.2-23.5,61.2-53.8,61.2h-30
			c-5.6,0-7.7-2.3-7.7-6.6V7.9z M527.7,114.1h24.4c30.1,0,40.8-22.9,40.8-52.1c0-23.8-10.5-49.3-40.2-49.3h-25.2v101.4H527.7z"/>
		<path class="st1" d="M671.1,3.2c-1.1-2-3.1-3.2-5.3-3.2c-2.2,0-4.2,1.3-5.3,3.4l-34.6,76.2l25.6-28.2L666,19.2l5.1,10.7l8.4-9.3
			L671.1,3.2z"/>
		<path class="st2" d="M726.1,118.2l-21.7-45.4l-25-52.3l-8.4,9.3L693.9,78l21.6,45.5c0.7,1.5,1.9,2.6,3.4,3.1
			c1.5,0.5,3.1,0.4,4.6-0.4c1.5-0.7,2.5-1.9,3-3.4C726.9,121.3,726.8,119.7,726.1,118.2"/>
		<path class="st2" d="M625.9,79.6l-17.2,38l-0.3,0.8c-0.3,0.6-0.4,1.2-0.5,1.8c-0.1,0.9,0,1.9,0.3,2.7c0.5,1.5,1.6,2.7,3.1,3.4
			c0.9,0.3,1.7,0.5,2.6,0.5c2.3,0,4.3-1.4,5.3-3.5l5-11.2l27.4-60.8L625.9,79.6z"/>
	</g>
	<g>
		<path class="st0" d="M723.5,3h-4.9v12.7h-3V3h-4.9V0.4h12.8V3z"/>
		<path class="st0" d="M737.9,15.7V5.6l-4,7.6h-1.6l-4-7.6v10.2h-3V0.4h3.2l4.5,8.7l4.6-8.7h3.2v15.3H737.9z"/>
	</g>
</g>
</svg>
